<?xml version="1.0" encoding="utf-8"?>
<!-- Generator: Adobe Illustrator 23.0.0, SVG Export Plug-In . SVG Version: 6.00 Build 0)  -->
<svg version="1.1" id="Layer_1" xmlns="http://www.w3.org/2000/svg" xmlns:xlink="http://www.w3.org/1999/xlink" x="0px" y="0px"
	 viewBox="0 0 363 153" style="enable-background:new 0 0 363 153;" xml:space="preserve">
<style type="text/css">
	.st0{fill:#829C2F;}
</style>
<title>my-leaf</title>
<g>
	<path class="st0" d="M8,103.4c4.3-2.2,8.3-1.8,12.4-0.6c1.8-0.8,1.6-2.3,1.6-3.8c0-8.3,0-16.7,0.1-25c0.2-2,0.5-4,0.9-6l3.8-2
		c4.1-0.3,7.7,2.6,8.2,6.6c0.1,1.7,0.1,3.3,0,5c0,7.8,0,15.7,0,23.5c2.3,2,2.3,2,11.2,1.7c1.8-0.8,1.8-2.3,1.8-3.8
		c0-8.8,0-17.7,0-26.5v-4.2c0.9-0.2,1.7-0.4,2.4-0.6c5.8-1.8,10.2,0.5,10.4,6.6c0.2,6.7,1,13.5-0.5,20.3c-0.6,2.5-1.1,5.6,1,8.1
		h11.2c0.3-0.4,0.5-0.5,0.5-0.6c0.4-8.1,0.9-16.2,1-24.3c-0.1-3.3-0.5-6.5-1.3-9.7c-0.9-4.6-4.1-8.5-8.5-10.2
		c-0.6-0.3-1.2-0.6-1.9-0.9c-6.7-0.2-13.5-1-19.4,3.1l-11-4.7C40.5,42.6,51.6,32.6,63.9,24C84.2,9.9,107.1,2.4,131.6,0
		c1-0.1,2.1,0.5,3.3,0.8c-0.2,5.1,0.5,9.8-0.8,14.6c-0.8,2.9-0.7,6.2-0.9,9.3c-0.9,10.5-3.7,20.6-6.3,30.7c-0.3,1.3-1.5,2.4-2.2,3.6
		h-11.6c-3.9,9.4-5.5,19.7-10.2,29c-0.7-0.7-1.3-0.9-1.4-1.3c-1.9-6.2-3.7-12.5-5.5-18.8c-0.7-2.3-1.2-4.8-2-7
		c-0.6-1.1-1.3-2-2.1-2.9c-3.9,0.4-7.8-1-11.8,0.9c4.1,14.8,9.5,29.2,16.1,43.1c-2.9,7.4-6.2,9-14,6.9c-2.6,2.3-3.1,3.8-3,9.4l6,2.1
		c-1,3.3-4.2,4.2-6.4,6c-6,4.9-12.5,9-19.5,12.3c-6.9,3.4-14,6.2-21.3,8.4c-7.4,2.2-14.9,3.5-22.4,4.9c-5,1-9.9,0.4-15.2,0.9
		c-0.7-8.7,0.5-16.9,2.3-25S6.1,111.7,8,103.4z"/>
	<path class="st0" d="M196.3,95.5c1.5,2,3.3,1.4,4.9,1.4c9.2,0,18.3,0,27.5,0h5.2v6.8h-45.6v-45c3.6-1,24-1.2,44.3-0.6
		c2.3,1.9,1.9,4.1,0.3,6.9h-34.1l-2.7,2.5c0.6,2.8-1,5.7,1.4,8.3h19.8c2.8,2.4,2.1,5,0.8,8h-21.2C195.5,88.1,196.2,91.9,196.3,95.5z
		"/>
	<path class="st0" d="M325.9,102.6c-2.8,2.4-5.7,0.7-8.3,1.5c-0.8-4.1-1-39.3-0.3-46.1h22.8c3.7,0,7.3-0.1,11,0s7.6-0.7,11.4,0.6
		c0.7,2.3,1.1,4.3-1,6.4h-34.2c-2.8,4.1-0.5,8.9-1.6,13.7c6.8,0.6,13.2,0,20.1,0.4c0.1,1.8,0.2,3.5,0.2,4.9c-1,2.1-2.5,2-4,2
		c-5.1,0-10.3,0-15.8,0C325.7,91.5,326.2,97,325.9,102.6z"/>
	<path class="st0" d="M140,96.9h34.8v6c-0.9,0.5-1.8,0.8-2.8,0.9c-12.8,0.1-25.6,0.1-38.4,0c-1.1-0.1-2.1-0.4-3.2-0.8
		c0-14.8,0-29.3,0-43.7c0-0.4,0.6-0.8,1-1.3h6.9c1.7,1.5,1.7,3.7,1.7,5.8c0,9.2,0,18.3,0,27.5V96.9z"/>
	<path class="st0" d="M277.5,59.2c-3-1.3-3-1.3-8-1c-3.2,3.2-24.9,40.8-26.2,45.5h8.2L257,94l31.3,0c2.6,3.2,2.9,7.7,6.6,9.9
		c2.7-0.3,5.5,0.6,8.5-0.8L277.5,59.2z M261.8,85.2L272,66.7c3.6,2.8,4.4,6.6,6.2,9.7c1.8,3.2,4.8,5.8,4.9,10.2
		C270.8,87.5,264.7,87.1,261.8,85.2z"/>
</g>
</svg>
